<?xml version="1.0" encoding="UTF-8"?>
<svg xmlns="http://www.w3.org/2000/svg" viewBox="0 0 64 64" role="img" aria-labelledby="title desc">
  <title id="title">Ravioli icon</title>
  <desc id="desc">a square ravioli parcel mark in the Night Market Pasta Protocol palette.</desc>
  <rect width="64" height="64" rx="16" fill="#071d38"/>
  <rect x="2" y="2" width="60" height="60" rx="14" fill="none" stroke="#2d6687" stroke-width="1.5"/>
  <g>
        <path d="M16 24c0-4 4-8 8-8h16c4 0 8 4 8 8v16c0 4-4 8-8 8H24c-4 0-8-4-8-8Z" fill="#ff6d6d" stroke="#fff9ee" stroke-width="3.2" stroke-linecap="round" stroke-linejoin="round"/>
        <rect x="24" y="24" width="16" height="16" rx="3" fill="#fff9ee"/>
        <path d="M19 24h-3M19 32h-3M19 40h-3M48 24h-3M48 32h-3M48 40h-3" stroke="#fff9ee" stroke-width="2.3" stroke-linecap="round"/></g>
</svg>
