<svg xmlns="http://www.w3.org/2000/svg" width="480" height="270" viewBox="0 0 480 270" role="img" aria-label="Waffle Thunder raceway card">
  <rect width="480" height="270" rx="16" fill="#151713"/>
  <path d="M30 214 C120 190 260 198 450 178" stroke="#8fbf65" stroke-width="8" fill="none" opacity=".55"/>
  <ellipse cx="220" cy="145" rx="118" ry="58" fill="#e0a138"/>
  <ellipse cx="314" cy="130" rx="48" ry="42" fill="#e0a138"/>
  <ellipse cx="180" cy="118" rx="48" ry="28" fill="#75421a" opacity=".92"/>
  <ellipse cx="248" cy="160" rx="42" ry="24" fill="#75421a" opacity=".82"/>
  <ellipse cx="302" cy="89" rx="18" ry="28" fill="#eb9475" transform="rotate(18 302 89)"/>
  <ellipse cx="337" cy="91" rx="18" ry="28" fill="#eb9475" transform="rotate(-18 337 91)"/>
  <circle cx="333" cy="124" r="7" fill="#050505"/>
  <circle cx="356" cy="139" r="8" fill="#2a1111"/>
  <path d="M344 143 C386 132 401 126 419 112" stroke="#f1e2bc" stroke-width="3" fill="none"/>
  <path d="M343 147 C386 151 405 153 429 164" stroke="#f1e2bc" stroke-width="3" fill="none"/>
  <ellipse cx="154" cy="195" rx="23" ry="13" fill="#ba7333"/>
  <ellipse cx="246" cy="195" rx="23" ry="13" fill="#ba7333"/>
  <path d="M182 83 C215 64 248 67 277 84" stroke="#ffd16b" stroke-width="10" stroke-linecap="round" opacity=".9"/>
  <text x="24" y="36" font-family="Verdana, Arial, sans-serif" font-size="24" font-weight="700" fill="#f5e8bc">Waffle Thunder</text>
  <text x="24" y="62" font-family="Verdana, Arial, sans-serif" font-size="12" fill="#d9cfae">golden satin | shoulder shimmy, bold chest lift, and side-to-side courage check</text>
  <text x="24" y="242" font-family="Verdana, Arial, sans-serif" font-size="13" fill="#f0d171">SPD 84  STA 68  COR 58  FOC 64  CRG 94</text>
</svg>
